<?xml version="1.0" encoding="UTF-8" standalone="no"?>
<svg
   width="264"
   height="264"
   version="1.1"
   id="svg329"
   xmlns="http://www.w3.org/2000/svg"
   xmlns:svg="http://www.w3.org/2000/svg">
  <path
     fill="transparent"
     d="M 0,0 H 264 V 264 H 0 Z" />
  <path
     fill="currentColor"
     d="m 32,32 v 8 8 8 8 8 8 8 h 8 8 8 8 8 8 8 v -8 -8 -8 -8 -8 -8 -8 h -8 -8 -8 -8 -8 -8 z m 72,0 v 8 h -8 v 8 8 h 8 v -8 h 8 v -8 h 8 v 8 h 8 8 8 8 8 v -8 -8 h -8 v 8 h -8 -8 -8 v -8 h -8 -8 z m 0,24 v 8 h -8 v 8 8 8 8 h 8 v -8 -8 -8 h 8 v -8 -8 z m 8,16 v 8 8 8 h 8 v -8 -8 -8 z m 8,0 h 8 v -8 h -8 z m 8,0 v 8 8 h 8 v -8 -8 z m 8,0 h 8 8 v 8 h 8 v -8 h 8 v -8 h -8 v -8 h -8 -8 v 8 h -8 z m 24,8 v 8 8 h 8 v -8 -8 z m 0,16 h -8 v -8 -8 h -8 v 8 8 h -8 -8 -8 v 8 h 8 v 8 8 h -8 -8 -8 v -8 h -8 v 8 h -8 v 8 h 8 8 8 v 8 h 8 8 8 v 8 h 8 v -8 -8 -8 h -8 v -8 -8 h 8 8 8 z m 0,8 v 8 h 8 v 8 h -8 v 8 h -8 v 8 h 8 v 8 h 8 v -8 h 8 v 8 h -8 v 8 h 8 v 8 h -8 v -8 h -8 -8 v 8 h 8 v 8 h -8 -8 -8 v -8 h 8 v -8 h -8 -8 v 8 8 h -8 -8 v 8 h -8 v -8 -8 -8 h -8 v -8 h 8 8 v -8 h -8 -8 -8 v 8 h -8 v 8 h 8 v 8 h -8 v -8 h -8 v 8 h -8 v -8 -8 -8 -8 h 8 v -8 -8 h -8 v 8 h -8 v 8 8 8 h -8 v -8 h -8 -8 v 8 h 8 v 8 h 8 v 8 h 8 v 8 h 8 8 8 8 8 v 8 8 h 8 v 8 8 h -8 v 8 h 8 v 8 h -8 v 8 8 h 8 v -8 h 8 v -8 -8 h 8 v -8 h 8 v -8 h -8 v -8 -8 h 8 v 8 h 8 v -8 h 8 8 v 8 h 8 v 8 8 h 8 8 8 v 8 8 h 8 8 v -8 h 8 v 8 h 8 v -8 -8 h -8 v -8 h 8 8 8 v -8 -8 -8 h -8 v 8 h -8 v 8 h -8 v -8 -8 h 8 v -8 h -8 -8 v -8 -8 h -8 v -8 -8 h 8 v -8 h -8 v -8 h -8 v -8 h 8 8 v -8 h -8 -8 -8 v 8 h -8 z m 40,24 v 8 8 h 8 v 8 h 8 v -8 -8 h -8 v -8 z m 16,8 h 8 v 8 8 h 8 v -8 -8 -8 h -8 -8 z m 8,16 h -8 v 8 h 8 z m -16,64 h -8 v 8 h 8 z m -80,-16 v 8 h 8 8 v -8 h 8 v -8 h -8 -8 v 8 z m 16,8 v 8 h -8 -8 v 8 8 h 8 8 v -8 h 8 v 8 h 8 8 8 8 8 v -8 h -8 -8 v -8 -8 h -8 -8 -8 z M 40,152 h -8 v 8 h 8 z m 16,-32 v -8 h -8 v -8 -8 h -8 -8 v 8 h 8 v 8 8 8 h 8 v -8 z m 0,-8 h 8 v -8 -8 h -8 v 8 z m 16,0 h 8 v -8 h -8 z m 8,-8 h 8 8 v -8 h -8 -8 z m 0,8 v 8 h 8 v -8 z m -8,16 v 8 h 8 8 v -8 h -8 z m 56,24 v -8 h -8 v 8 z m 16,0 h 8 v -8 h -8 z m -40,-40 h 8 v -8 h -8 z m 72,-80 v 8 8 8 8 8 8 8 h 8 8 8 8 8 8 8 v -8 -8 -8 -8 -8 -8 -8 h -8 -8 -8 -8 -8 -8 z M 40,40 h 8 8 8 8 8 v 8 8 8 8 8 h -8 -8 -8 -8 -8 v -8 -8 -8 -8 z m 144,0 h 8 8 8 8 8 v 8 8 8 8 8 h -8 -8 -8 -8 -8 V 72 64 56 48 Z M 48,48 v 8 8 8 h 8 8 8 v -8 -8 -8 h -8 -8 z m 144,0 v 8 8 8 h 8 8 8 v -8 -8 -8 h -8 -8 z m 16,48 v 8 h 8 8 v -8 h -8 z m 16,8 v 8 h -8 v 8 h 8 8 v -8 -8 z m -48,16 h 8 v 8 h -8 z m 8,32 h 8 v 8 h -8 z m -16,16 h 8 8 8 v 8 8 8 h -8 -8 -8 v -8 -8 z m -136,8 v 8 8 8 8 8 8 8 h 8 8 8 8 8 8 8 v -8 -8 -8 -8 -8 -8 -8 h -8 -8 -8 -8 -8 -8 z m 144,0 v 8 h 8 v -8 z m -136,8 h 8 8 8 8 8 v 8 8 8 8 8 h -8 -8 -8 -8 -8 v -8 -8 -8 -8 z m 8,8 v 8 8 8 h 8 8 8 v -8 -8 -8 h -8 -8 z m 176,16 v 8 h 8 v -8 z m -8,16 v 8 h 8 8 v -8 h -8 z" />
</svg>
