<svg baseProfile="tiny" xmlns="http://www.w3.org/2000/svg" width="200" height="200"><path shape-rendering="optimizeSpeed" fill="transparent" d="M0 0h200v200H0z"/><path shape-rendering="optimizeSpeed" d="M13 13h6v6h-6zm6 0h6v6h-6zm6 0h6v6h-6zm6 0h6v6h-6zm6 0h6v6h-6zm6 0h6v6h-6zm6 0h6v6h-6zm18 0h6v6h-6zm36 0h6v6h-6zm6 0h6v6h-6zm6 0h6v6h-6zm6 0h6v6h-6zm6 0h6v6h-6zm18 0h6v6h-6zm6 0h6v6h-6zm6 0h6v6h-6zm6 0h6v6h-6zm6 0h6v6h-6zm6 0h6v6h-6zm6 0h6v6h-6zM13 19h6v6h-6zm36 0h6v6h-6zm12 0h6v6h-6zm6 0h6v6h-6zm12 0h6v6h-6zm6 0h6v6h-6zm30 0h6v6h-6zm18 0h6v6h-6zm12 0h6v6h-6zm36 0h6v6h-6zM13 25h6v6h-6zm12 0h6v6h-6zm6 0h6v6h-6zm6 0h6v6h-6zm12 0h6v6h-6zm18 0h6v6h-6zm6 0h6v6h-6zm6 0h6v6h-6zm18 0h6v6h-6zm12 0h6v6h-6zm24 0h6v6h-6zm12 0h6v6h-6zm12 0h6v6h-6zm6 0h6v6h-6zm6 0h6v6h-6zm12 0h6v6h-6zM13 31h6v6h-6zm12 0h6v6h-6zm6 0h6v6h-6zm6 0h6v6h-6zm12 0h6v6h-6zm12 0h6v6h-6zm6 0h6v6h-6zm12 0h6v6h-6zm36 0h6v6h-6zm12 0h6v6h-6zm18 0h6v6h-6zm12 0h6v6h-6zm6 0h6v6h-6zm6 0h6v6h-6zm12 0h6v6h-6zM13 37h6v6h-6zm12 0h6v6h-6zm6 0h6v6h-6zm6 0h6v6h-6zm12 0h6v6h-6zm24 0h6v6h-6zm12 0h6v6h-6zm6 0h6v6h-6zm6 0h6v6h-6zm6 0h6v6h-6zm24 0h6v6h-6zm6 0h6v6h-6zm12 0h6v6h-6zm12 0h6v6h-6zm6 0h6v6h-6zm6 0h6v6h-6zm12 0h6v6h-6zM13 43h6v6h-6zm36 0h6v6h-6zm12 0h6v6h-6zm12 0h6v6h-6zm18 0h6v6h-6zm6 0h6v6h-6zm6 0h6v6h-6zm12 0h6v6h-6zm6 0h6v6h-6zm12 0h6v6h-6zm12 0h6v6h-6zm36 0h6v6h-6zM13 49h6v6h-6zm6 0h6v6h-6zm6 0h6v6h-6zm6 0h6v6h-6zm6 0h6v6h-6zm6 0h6v6h-6zm6 0h6v6h-6zm12 0h6v6h-6zm12 0h6v6h-6zm12 0h6v6h-6zm12 0h6v6h-6zm12 0h6v6h-6zm12 0h6v6h-6zm12 0h6v6h-6zm12 0h6v6h-6zm6 0h6v6h-6zm6 0h6v6h-6zm6 0h6v6h-6zm6 0h6v6h-6zm6 0h6v6h-6zm6 0h6v6h-6zm-96 6h6v6h-6zm6 0h6v6h-6zm30 0h6v6h-6zm6 0h6v6h-6zm6 0h6v6h-6zM13 61h6v6h-6zm6 0h6v6h-6zm6 0h6v6h-6zm6 0h6v6h-6zm6 0h6v6h-6zm12 0h6v6h-6zm6 0h6v6h-6zm6 0h6v6h-6zm6 0h6v6h-6zm6 0h6v6h-6zm12 0h6v6h-6zm12 0h6v6h-6zm6 0h6v6h-6zm6 0h6v6h-6zm6 0h6v6h-6zm12 0h6v6h-6zm12 0h6v6h-6zm12 0h6v6h-6zm12 0h6v6h-6zm12 0h6v6h-6zM13 67h6v6h-6zm12 0h6v6h-6zm6 0h6v6h-6zm24 0h6v6h-6zm6 0h6v6h-6zm6 0h6v6h-6zm54 0h6v6h-6zm6 0h6v6h-6zm6 0h6v6h-6zm6 0h6v6h-6zm6 0h6v6h-6zm6 0h6v6h-6zm6 0h6v6h-6zm24 0h6v6h-6zM25 73h6v6h-6zm6 0h6v6h-6zm6 0h6v6h-6zm6 0h6v6h-6zm6 0h6v6h-6zm6 0h6v6h-6zm12 0h6v6h-6zm12 0h6v6h-6zm6 0h6v6h-6zm18 0h6v6h-6zm6 0h6v6h-6zm24 0h6v6h-6zm12 0h6v6h-6zm6 0h6v6h-6zm-84 6h6v6h-6zm6 0h6v6h-6zm6 0h6v6h-6zm18 0h6v6h-6zm6 0h6v6h-6zm6 0h6v6h-6zm18 0h6v6h-6zm12 0h6v6h-6zm12 0h6v6h-6zm24 0h6v6h-6zM19 85h6v6h-6zm12 0h6v6h-6zm6 0h6v6h-6zm6 0h6v6h-6zm6 0h6v6h-6zm6 0h6v6h-6zm6 0h6v6h-6zm6 0h6v6h-6zm12 0h6v6h-6zm30 0h6v6h-6zm6 0h6v6h-6zm48 0h6v6h-6zm6 0h6v6h-6zM25 91h6v6h-6zm6 0h6v6h-6zm6 0h6v6h-6zm6 0h6v6h-6zm12 0h6v6h-6zm18 0h6v6h-6zm12 0h6v6h-6zm6 0h6v6h-6zm6 0h6v6h-6zm30 0h6v6h-6zm6 0h6v6h-6zm6 0h6v6h-6zm6 0h6v6h-6zm6 0h6v6h-6zm6 0h6v6h-6zm12 0h6v6h-6zm12 0h6v6h-6zM13 97h6v6h-6zm6 0h6v6h-6zm6 0h6v6h-6zm6 0h6v6h-6zm12 0h6v6h-6zm6 0h6v6h-6zm6 0h6v6h-6zm6 0h6v6h-6zm12 0h6v6h-6zm18 0h6v6h-6zm6 0h6v6h-6zm6 0h6v6h-6zm12 0h6v6h-6zm6 0h6v6h-6zm30 0h6v6h-6zm18 0h6v6h-6zm-108 6h6v6h-6zm12 0h6v6h-6zm12 0h6v6h-6zm6 0h6v6h-6zm36 0h6v6h-6zm6 0h6v6h-6zm6 0h6v6h-6zm12 0h6v6h-6zm6 0h6v6h-6zm18 0h6v6h-6zm-156 6h6v6h-6zm12 0h6v6h-6zm6 0h6v6h-6zm6 0h6v6h-6zm6 0h6v6h-6zm36 0h6v6h-6zm12 0h6v6h-6zm6 0h6v6h-6zm6 0h6v6h-6zm6 0h6v6h-6zm12 0h6v6h-6zm42 0h6v6h-6zm-156 6h6v6h-6zm6 0h6v6h-6zm6 0h6v6h-6zm6 0h6v6h-6zm12 0h6v6h-6zm12 0h6v6h-6zm12 0h6v6h-6zm6 0h6v6h-6zm36 0h6v6h-6zm18 0h6v6h-6zm12 0h6v6h-6zm6 0h6v6h-6zm6 0h6v6h-6zm6 0h6v6h-6zm6 0h6v6h-6zm6 0h6v6h-6zm12 0h6v6h-6zm-168 6h6v6h-6zm36 0h6v6h-6zm24 0h6v6h-6zm6 0h6v6h-6zm6 0h6v6h-6zm18 0h6v6h-6zm6 0h6v6h-6zm24 0h6v6h-6zm6 0h6v6h-6zm24 0h6v6h-6zm6 0h6v6h-6zm-156 6h6v6h-6zm12 0h6v6h-6zm6 0h6v6h-6zm12 0h6v6h-6zm12 0h6v6h-6zm18 0h6v6h-6zm6 0h6v6h-6zm18 0h6v6h-6zm6 0h6v6h-6zm24 0h6v6h-6zm6 0h6v6h-6zm6 0h6v6h-6zm6 0h6v6h-6zm6 0h6v6h-6zm6 0h6v6h-6zm18 0h6v6h-6zm-162 6h6v6h-6zm18 0h6v6h-6zm6 0h6v6h-6zm12 0h6v6h-6zm18 0h6v6h-6zm6 0h6v6h-6zm6 0h6v6h-6zm24 0h6v6h-6zm6 0h6v6h-6zm6 0h6v6h-6zm18 0h6v6h-6zm6 0h6v6h-6zm6 0h6v6h-6zm6 0h6v6h-6zm6 0h6v6h-6zm12 0h6v6h-6zm6 0h6v6h-6zm6 0h6v6h-6zm-120 6h6v6h-6zm12 0h6v6h-6zm12 0h6v6h-6zm6 0h6v6h-6zm6 0h6v6h-6zm12 0h6v6h-6zm6 0h6v6h-6zm6 0h6v6h-6zm12 0h6v6h-6zm24 0h6v6h-6zm6 0h6v6h-6zm6 0h6v6h-6zm6 0h6v6h-6zm6 0h6v6h-6zm-168 6h6v6h-6zm6 0h6v6h-6zm6 0h6v6h-6zm6 0h6v6h-6zm6 0h6v6h-6zm6 0h6v6h-6zm6 0h6v6h-6zm12 0h6v6h-6zm12 0h6v6h-6zm18 0h6v6h-6zm6 0h6v6h-6zm6 0h6v6h-6zm6 0h6v6h-6zm18 0h6v6h-6zm6 0h6v6h-6zm12 0h6v6h-6zm12 0h6v6h-6zm6 0h6v6h-6zm6 0h6v6h-6zm-156 6h6v6h-6zm36 0h6v6h-6zm24 0h6v6h-6zm12 0h6v6h-6zm6 0h6v6h-6zm18 0h6v6h-6zm18 0h6v6h-6zm6 0h6v6h-6zm24 0h6v6h-6zm6 0h6v6h-6zm18 0h6v6h-6zm-168 6h6v6h-6zm12 0h6v6h-6zm6 0h6v6h-6zm6 0h6v6h-6zm12 0h6v6h-6zm12 0h6v6h-6zm6 0h6v6h-6zm18 0h6v6h-6zm12 0h6v6h-6zm12 0h6v6h-6zm6 0h6v6h-6zm18 0h6v6h-6zm6 0h6v6h-6zm6 0h6v6h-6zm6 0h6v6h-6zm6 0h6v6h-6zm6 0h6v6h-6zm6 0h6v6h-6zm6 0h6v6h-6zm-162 6h6v6h-6zm12 0h6v6h-6zm6 0h6v6h-6zm6 0h6v6h-6zm12 0h6v6h-6zm12 0h6v6h-6zm60 0h6v6h-6zm12 0h6v6h-6zm18 0h6v6h-6zm18 0h6v6h-6zm6 0h6v6h-6zm6 0h6v6h-6zm-168 6h6v6h-6zm12 0h6v6h-6zm6 0h6v6h-6zm6 0h6v6h-6zm12 0h6v6h-6zm12 0h6v6h-6zm18 0h6v6h-6zm6 0h6v6h-6zm18 0h6v6h-6zm6 0h6v6h-6zm30 0h6v6h-6zm6 0h6v6h-6zm6 0h6v6h-6zm6 0h6v6h-6zm12 0h6v6h-6zm6 0h6v6h-6zm-162 6h6v6h-6zm36 0h6v6h-6zm12 0h6v6h-6zm6 0h6v6h-6zm12 0h6v6h-6zm18 0h6v6h-6zm12 0h6v6h-6zm18 0h6v6h-6zm6 0h6v6h-6zm18 0h6v6h-6zm6 0h6v6h-6zm6 0h6v6h-6zm12 0h6v6h-6zm-162 6h6v6h-6zm6 0h6v6h-6zm6 0h6v6h-6zm6 0h6v6h-6zm6 0h6v6h-6zm6 0h6v6h-6zm6 0h6v6h-6zm12 0h6v6h-6zm6 0h6v6h-6zm6 0h6v6h-6zm6 0h6v6h-6zm36 0h6v6h-6zm6 0h6v6h-6zm6 0h6v6h-6zm24 0h6v6h-6zm6 0h6v6h-6zm12 0h6v6h-6z"/></svg>